<svg width="1094" height="216" viewBox="0 0 1094 216" fill="none" xmlns="http://www.w3.org/2000/svg">
<g clip-path="url(#clip0_132_56)">
<path d="M71.5366 75.942C68.0243 75.9686 65.1704 73.1145 65.1971 69.6022V69.6022C65.2926 57.0577 75.4276 46.6146 87.9727 46.4468C92.7314 46.3885 97.3663 47.8221 101.226 50.5464C105.086 53.2707 107.977 57.149 109.493 61.6363C110.214 63.7827 111.591 65.64 113.432 66.9491V66.9491C116.479 69.115 119.855 65.8998 119.09 62.2408C118.699 60.3694 118.137 58.5353 117.411 56.7614C115.834 52.9088 113.508 49.4161 110.567 46.4831C107.625 43.5506 104.126 41.2344 100.269 39.6681C96.4117 38.1017 92.2719 37.3155 88.0862 37.3543C70.4934 37.5379 56.2392 52.1385 56.1049 69.731L55.6788 125.614C55.6576 128.391 53.4117 130.636 50.6349 130.658V130.658C37.8776 130.755 27.4895 120.449 27.8125 107.69C27.9391 102.975 29.5258 98.3927 32.3536 94.5762C35.1813 90.7596 39.1107 87.897 43.5994 86.3832C45.6607 85.7047 47.4646 84.3953 48.7537 82.6422C50.0428 80.889 50.751 78.7817 50.7773 76.6213L50.7788 76.4664C50.7794 76.4183 50.7703 76.3707 50.7523 76.3263C50.7343 76.2819 50.7076 76.2417 50.6738 76.2079C50.64 76.1741 50.5998 76.1474 50.5555 76.1294C50.5111 76.1114 50.4635 76.1024 50.4153 76.1029C42.1392 76.2712 34.2042 79.652 28.2892 85.5301C22.3743 91.4082 18.9435 99.3225 18.7228 107.598C18.2723 125.45 32.7732 139.885 50.6257 139.749L105.031 139.335C108.586 139.308 111.475 142.197 111.448 145.752V145.752C111.352 158.297 101.217 168.74 88.6721 168.908C83.9135 168.966 79.2785 167.532 75.4187 164.808C71.5589 162.084 68.6678 158.206 67.1515 153.718C66.4303 151.572 65.0532 149.714 63.2129 148.406V148.406C60.1666 146.239 56.7897 149.455 57.5548 153.114C57.9461 154.985 58.5071 156.819 59.2332 158.593C60.8108 162.446 63.1363 165.938 66.078 168.871C69.0192 171.804 72.5186 174.12 76.3757 175.686C80.2332 177.253 84.373 178.039 88.5585 178C106.151 177.817 120.406 163.217 120.54 145.624L120.966 89.6797C120.987 86.8924 123.241 84.6381 126.029 84.6169V84.6169C138.573 84.5214 148.863 94.4986 148.84 107.042C148.826 111.801 147.321 116.458 144.538 120.36C141.755 124.262 137.832 127.212 133.321 128.797C131.163 129.551 129.283 130.957 127.946 132.819V132.819C125.765 135.854 128.959 139.22 132.605 138.401C134.47 137.981 136.301 137.395 138.075 136.647C141.952 135.01 145.48 132.631 148.459 129.645C151.436 126.658 153.806 123.123 155.431 119.242C157.056 115.36 157.906 111.208 157.93 107.022C158.016 89.4301 143.63 75.3962 126.038 75.5301L71.5366 75.942ZM111.735 107.807C111.64 120.226 101.596 130.27 89.1769 130.365L87.8129 130.375C75.1236 130.472 64.8123 120.16 64.909 107.471V107.471C65.0037 95.052 75.048 85.0078 87.4669 84.9133L88.8308 84.9029C101.52 84.8063 111.831 95.1177 111.735 107.807V107.807Z" fill="#405D0E"/>
</g>
<path d="M241.776 159.5C235.056 159.5 229.008 158.348 223.632 156.044C218.256 153.644 214.032 150.284 210.96 145.964C207.888 141.644 206.352 136.604 206.352 130.844H223.92C224.304 135.164 225.984 138.716 228.96 141.5C232.032 144.284 236.304 145.676 241.776 145.676C247.44 145.676 251.856 144.332 255.024 141.644C258.192 138.86 259.776 135.308 259.776 130.988C259.776 127.628 258.768 124.892 256.752 122.78C254.832 120.668 252.384 119.036 249.408 117.884C246.528 116.732 242.496 115.484 237.312 114.14C230.784 112.412 225.456 110.684 221.328 108.956C217.296 107.132 213.84 104.348 210.96 100.604C208.08 96.8603 206.64 91.8683 206.64 85.6283C206.64 79.8683 208.08 74.8283 210.96 70.5083C213.84 66.1883 217.872 62.8763 223.056 60.5723C228.24 58.2683 234.24 57.1163 241.056 57.1163C250.752 57.1163 258.672 59.5643 264.816 64.4603C271.056 69.2603 274.512 75.8843 275.184 84.3323H257.04C256.752 80.6843 255.024 77.5643 251.856 74.9723C248.688 72.3803 244.512 71.0843 239.328 71.0843C234.624 71.0843 230.784 72.2843 227.808 74.6843C224.832 77.0843 223.344 80.5403 223.344 85.0523C223.344 88.1243 224.256 90.6683 226.08 92.6843C228 94.6043 230.4 96.1403 233.28 97.2923C236.16 98.4443 240.096 99.6923 245.088 101.036C251.712 102.86 257.088 104.684 261.216 106.508C265.44 108.332 268.992 111.164 271.872 115.004C274.848 118.748 276.336 123.788 276.336 130.124C276.336 135.212 274.944 140.012 272.16 144.524C269.472 149.036 265.488 152.684 260.208 155.468C255.024 158.156 248.88 159.5 241.776 159.5ZM335.738 77.8523C341.978 77.8523 347.546 79.1483 352.442 81.7403C357.434 84.3323 361.322 88.1723 364.106 93.2603C366.89 98.3483 368.282 104.492 368.282 111.692V158.492H352.01V114.14C352.01 107.036 350.234 101.612 346.682 97.8683C343.13 94.0283 338.282 92.1083 332.138 92.1083C325.994 92.1083 321.098 94.0283 317.45 97.8683C313.898 101.612 312.122 107.036 312.122 114.14V158.492H295.706V79.1483H312.122V88.2203C314.81 84.9563 318.218 82.4123 322.346 80.5883C326.57 78.7643 331.034 77.8523 335.738 77.8523ZM383.75 118.46C383.75 110.492 385.382 103.436 388.646 97.2923C392.006 91.1483 396.518 86.3963 402.182 83.0363C407.942 79.5803 414.278 77.8523 421.19 77.8523C427.43 77.8523 432.854 79.1003 437.462 81.5963C442.166 83.9963 445.91 87.0203 448.694 90.6683V79.1483H465.254V158.492H448.694V146.684C445.91 150.428 442.118 153.548 437.318 156.044C432.518 158.54 427.046 159.788 420.902 159.788C414.086 159.788 407.846 158.06 402.182 154.604C396.518 151.052 392.006 146.156 388.646 139.916C385.382 133.58 383.75 126.428 383.75 118.46ZM448.694 118.748C448.694 113.276 447.542 108.524 445.238 104.492C443.03 100.46 440.102 97.3883 436.454 95.2763C432.806 93.1643 428.87 92.1083 424.646 92.1083C420.422 92.1083 416.486 93.1643 412.838 95.2763C409.19 97.2923 406.214 100.316 403.91 104.348C401.702 108.284 400.598 112.988 400.598 118.46C400.598 123.932 401.702 128.732 403.91 132.86C406.214 136.988 409.19 140.156 412.838 142.364C416.582 144.476 420.518 145.532 424.646 145.532C428.87 145.532 432.806 144.476 436.454 142.364C440.102 140.252 443.03 137.18 445.238 133.148C447.542 129.02 448.694 124.22 448.694 118.748ZM481.344 118.748C481.344 110.588 482.976 103.436 486.24 97.2923C489.6 91.0523 494.208 86.2523 500.064 82.8923C505.92 79.5323 512.64 77.8523 520.224 77.8523C529.824 77.8523 537.744 80.1563 543.984 84.7643C550.32 89.2763 554.592 95.7563 556.8 104.204H539.088C537.648 100.268 535.344 97.1963 532.176 94.9883C529.008 92.7803 525.024 91.6763 520.224 91.6763C513.504 91.6763 508.128 94.0763 504.096 98.8763C500.16 103.58 498.192 110.204 498.192 118.748C498.192 127.292 500.16 133.964 504.096 138.764C508.128 143.564 513.504 145.964 520.224 145.964C529.728 145.964 536.016 141.788 539.088 133.436H556.8C554.496 141.5 550.176 147.932 543.84 152.732C537.504 157.436 529.632 159.788 520.224 159.788C512.64 159.788 505.92 158.108 500.064 154.748C494.208 151.292 489.6 146.492 486.24 140.348C482.976 134.108 481.344 126.908 481.344 118.748ZM604.551 118.892L641.127 158.492H618.951L589.575 124.364V158.492H573.159V51.9323H589.575V113.852L618.375 79.1483H641.127L604.551 118.892ZM713.23 138.044H671.326L664.126 158.492H646.99L682.846 58.2683H701.854L737.71 158.492H720.43L713.23 138.044ZM708.622 124.652L692.35 78.1403L675.934 124.652H708.622ZM769.716 90.8123C772.5 87.1643 776.292 84.0923 781.092 81.5963C785.892 79.1003 791.316 77.8523 797.364 77.8523C804.276 77.8523 810.564 79.5803 816.228 83.0363C821.988 86.3963 826.5 91.1483 829.764 97.2923C833.028 103.436 834.66 110.492 834.66 118.46C834.66 126.428 833.028 133.58 829.764 139.916C826.5 146.156 821.988 151.052 816.228 154.604C810.564 158.06 804.276 159.788 797.364 159.788C791.316 159.788 785.94 158.588 781.236 156.188C776.532 153.692 772.692 150.62 769.716 146.972V196.22H753.3V79.1483H769.716V90.8123ZM817.956 118.46C817.956 112.988 816.804 108.284 814.5 104.348C812.292 100.316 809.316 97.2923 805.572 95.2763C801.924 93.1643 797.988 92.1083 793.764 92.1083C789.636 92.1083 785.7 93.1643 781.956 95.2763C778.308 97.3883 775.332 100.46 773.028 104.492C770.82 108.524 769.716 113.276 769.716 118.748C769.716 124.22 770.82 129.02 773.028 133.148C775.332 137.18 778.308 140.252 781.956 142.364C785.7 144.476 789.636 145.532 793.764 145.532C797.988 145.532 801.924 144.476 805.572 142.364C809.316 140.156 812.292 136.988 814.5 132.86C816.804 128.732 817.956 123.932 817.956 118.46ZM867.31 90.8123C870.094 87.1643 873.886 84.0923 878.686 81.5963C883.486 79.1003 888.91 77.8523 894.958 77.8523C901.87 77.8523 908.158 79.5803 913.822 83.0363C919.582 86.3963 924.094 91.1483 927.358 97.2923C930.622 103.436 932.254 110.492 932.254 118.46C932.254 126.428 930.622 133.58 927.358 139.916C924.094 146.156 919.582 151.052 913.822 154.604C908.158 158.06 901.87 159.788 894.958 159.788C888.91 159.788 883.534 158.588 878.83 156.188C874.126 153.692 870.286 150.62 867.31 146.972V196.22H850.894V79.1483H867.31V90.8123ZM915.55 118.46C915.55 112.988 914.398 108.284 912.094 104.348C909.886 100.316 906.91 97.2923 903.166 95.2763C899.518 93.1643 895.582 92.1083 891.358 92.1083C887.23 92.1083 883.294 93.1643 879.55 95.2763C875.902 97.3883 872.926 100.46 870.622 104.492C868.414 108.524 867.31 113.276 867.31 118.748C867.31 124.22 868.414 129.02 870.622 133.148C872.926 137.18 875.902 140.252 879.55 142.364C883.294 144.476 887.23 145.532 891.358 145.532C895.582 145.532 899.518 144.476 903.166 142.364C906.91 140.156 909.886 136.988 912.094 132.86C914.398 128.732 915.55 123.932 915.55 118.46Z" fill="#405D0E"/>
<defs>
<clipPath id="clip0_132_56">
<rect width="150" height="150" fill="white" transform="translate(11 35)"/>
</clipPath>
</defs>
</svg>
