<svg width="154" height="170" viewBox="0 0 154 170" fill="none" xmlns="http://www.w3.org/2000/svg">
<path d="M10.2197 151.45C7.4056 150.641 5.35482 149.65 4.06738 148.476C2.79134 147.291 2.15332 145.833 2.15332 144.101C2.15332 142.142 2.93376 140.524 4.49463 139.248C6.06689 137.96 8.10628 137.317 10.6128 137.317C12.3218 137.317 13.8428 137.647 15.1758 138.308C16.5202 138.969 17.557 139.88 18.2861 141.042C19.0267 142.204 19.397 143.475 19.397 144.853H16.0986C16.0986 143.349 15.6201 142.17 14.6631 141.316C13.7061 140.45 12.356 140.017 10.6128 140.017C8.99495 140.017 7.73031 140.376 6.81885 141.093C5.91878 141.8 5.46875 142.785 5.46875 144.05C5.46875 145.064 5.896 145.924 6.75049 146.63C7.61637 147.325 9.0804 147.964 11.1426 148.545C13.2161 149.126 14.834 149.769 15.9961 150.476C17.1696 151.171 18.0355 151.985 18.5938 152.92C19.1634 153.854 19.4482 154.953 19.4482 156.218C19.4482 158.234 18.6621 159.852 17.0898 161.071C15.5176 162.279 13.4155 162.883 10.7837 162.883C9.07471 162.883 7.47965 162.558 5.99854 161.909C4.51742 161.248 3.3724 160.348 2.56348 159.209C1.76595 158.069 1.36719 156.776 1.36719 155.329H4.66553C4.66553 156.833 5.2181 158.024 6.32324 158.901C7.43978 159.767 8.9266 160.2 10.7837 160.2C12.5155 160.2 13.8428 159.847 14.7656 159.14C15.6885 158.434 16.1499 157.471 16.1499 156.252C16.1499 155.033 15.7227 154.093 14.8682 153.432C14.0137 152.76 12.4642 152.099 10.2197 151.45ZM26.1646 144.05L26.2671 146.374C27.6799 144.597 29.5256 143.708 31.8042 143.708C35.7121 143.708 37.6831 145.913 37.7173 150.322V162.541H34.5557V150.305C34.5443 148.972 34.2367 147.986 33.6328 147.348C33.0404 146.71 32.1118 146.391 30.8472 146.391C29.8218 146.391 28.9217 146.665 28.147 147.212C27.3722 147.758 26.7684 148.476 26.3354 149.365V162.541H23.1738V144.05H26.1646ZM53.9014 162.541C53.7191 162.177 53.571 161.527 53.457 160.593C51.9873 162.12 50.2327 162.883 48.1934 162.883C46.3704 162.883 44.8722 162.37 43.6987 161.345C42.5366 160.308 41.9556 158.998 41.9556 157.414C41.9556 155.489 42.6847 153.996 44.1431 152.937C45.6128 151.866 47.675 151.33 50.3296 151.33H53.4058V149.878C53.4058 148.772 53.0754 147.895 52.4146 147.246C51.7537 146.585 50.7796 146.255 49.4922 146.255C48.3643 146.255 47.4186 146.539 46.6553 147.109C45.8919 147.679 45.5103 148.368 45.5103 149.177H42.3315C42.3315 148.254 42.6562 147.365 43.3057 146.511C43.9665 145.645 44.8551 144.961 45.9717 144.46C47.0996 143.959 48.3358 143.708 49.6802 143.708C51.8107 143.708 53.4798 144.244 54.6875 145.315C55.8952 146.374 56.5218 147.838 56.5674 149.707V158.217C56.5674 159.915 56.7839 161.265 57.2168 162.268V162.541H53.9014ZM48.6548 160.131C49.646 160.131 50.5859 159.875 51.4746 159.362C52.3633 158.85 53.007 158.183 53.4058 157.363V153.569H50.9277C47.054 153.569 45.1172 154.703 45.1172 156.97C45.1172 157.961 45.4476 158.736 46.1084 159.294C46.7692 159.852 47.618 160.131 48.6548 160.131ZM68.9404 160.302C70.0684 160.302 71.0539 159.961 71.897 159.277C72.7401 158.593 73.2072 157.739 73.2983 156.714H76.2891C76.2321 157.773 75.8675 158.781 75.1953 159.738C74.5231 160.695 73.623 161.459 72.4951 162.028C71.3786 162.598 70.1937 162.883 68.9404 162.883C66.4225 162.883 64.4173 162.046 62.9248 160.371C61.4437 158.685 60.7031 156.383 60.7031 153.466V152.937C60.7031 151.137 61.0335 149.536 61.6943 148.134C62.3551 146.733 63.3008 145.645 64.5312 144.87C65.7731 144.095 67.2371 143.708 68.9233 143.708C70.9969 143.708 72.7173 144.329 74.0845 145.571C75.4631 146.813 76.1979 148.425 76.2891 150.407H73.2983C73.2072 149.211 72.7515 148.231 71.9312 147.468C71.1222 146.693 70.1196 146.306 68.9233 146.306C67.3169 146.306 66.0693 146.887 65.1807 148.049C64.3034 149.2 63.8647 150.869 63.8647 153.056V153.654C63.8647 155.785 64.3034 157.426 65.1807 158.576C66.0579 159.727 67.3112 160.302 68.9404 160.302ZM85.0049 153.979L83.0225 156.047V162.541H79.8608V136.291H83.0225V152.168L84.7144 150.134L90.4736 144.05H94.3188L87.124 151.775L95.1562 162.541H91.4478L85.0049 153.979ZM108.999 162.541C108.817 162.177 108.669 161.527 108.555 160.593C107.085 162.12 105.33 162.883 103.291 162.883C101.468 162.883 99.9699 162.37 98.7964 161.345C97.6343 160.308 97.0532 158.998 97.0532 157.414C97.0532 155.489 97.7824 153.996 99.2407 152.937C100.71 151.866 102.773 151.33 105.427 151.33H108.503V149.878C108.503 148.772 108.173 147.895 107.512 147.246C106.851 146.585 105.877 146.255 104.59 146.255C103.462 146.255 102.516 146.539 101.753 147.109C100.99 147.679 100.608 148.368 100.608 149.177H97.4292C97.4292 148.254 97.7539 147.365 98.4033 146.511C99.0641 145.645 99.9528 144.961 101.069 144.46C102.197 143.959 103.433 143.708 104.778 143.708C106.908 143.708 108.577 144.244 109.785 145.315C110.993 146.374 111.619 147.838 111.665 149.707V158.217C111.665 159.915 111.882 161.265 112.314 162.268V162.541H108.999ZM103.752 160.131C104.744 160.131 105.684 159.875 106.572 159.362C107.461 158.85 108.105 158.183 108.503 157.363V153.569H106.025C102.152 153.569 100.215 154.703 100.215 156.97C100.215 157.961 100.545 158.736 101.206 159.294C101.867 159.852 102.716 160.131 103.752 160.131ZM132.241 153.501C132.241 156.315 131.597 158.582 130.31 160.302C129.023 162.023 127.279 162.883 125.081 162.883C122.836 162.883 121.07 162.171 119.783 160.747V169.651H116.621V144.05H119.509L119.663 146.101C120.951 144.506 122.739 143.708 125.029 143.708C127.251 143.708 129.006 144.546 130.293 146.22C131.592 147.895 132.241 150.225 132.241 153.21V153.501ZM129.08 153.142C129.08 151.057 128.635 149.41 127.747 148.203C126.858 146.995 125.639 146.391 124.089 146.391C122.175 146.391 120.74 147.24 119.783 148.938V157.773C120.728 159.459 122.175 160.302 124.124 160.302C125.639 160.302 126.841 159.704 127.729 158.508C128.63 157.3 129.08 155.512 129.08 153.142ZM151.895 153.501C151.895 156.315 151.251 158.582 149.963 160.302C148.676 162.023 146.933 162.883 144.734 162.883C142.489 162.883 140.723 162.171 139.436 160.747V169.651H136.274V144.05H139.163L139.316 146.101C140.604 144.506 142.393 143.708 144.683 143.708C146.904 143.708 148.659 144.546 149.946 146.22C151.245 147.895 151.895 150.225 151.895 153.21V153.501ZM148.733 153.142C148.733 151.057 148.289 149.41 147.4 148.203C146.511 146.995 145.292 146.391 143.743 146.391C141.829 146.391 140.393 147.24 139.436 148.938V157.773C140.382 159.459 141.829 160.302 143.777 160.302C145.292 160.302 146.494 159.704 147.383 158.508C148.283 157.3 148.733 155.512 148.733 153.142Z" fill="#405D0E"/>
<path d="M82.0586 19.0951L86.1258 15.0374C94.1129 7.06921 107.116 6.87198 115.149 14.7943C118.193 17.8029 120.216 21.6871 120.933 25.9014C121.651 30.1158 121.027 34.4485 119.149 38.2909C118.249 40.1264 117.945 42.1967 118.281 44.2126C118.618 46.2285 119.576 48.0893 121.024 49.5352C123.686 46.8734 125.796 43.7145 127.233 40.2389C128.671 36.7633 129.408 33.0392 129.403 29.2793C129.397 25.5194 128.65 21.7974 127.202 18.3259C125.755 14.8544 123.636 11.7014 120.966 9.04717C109.734 -2.09589 91.5006 -1.87415 80.2992 9.30022L41.5312 47.9757L38.3441 44.7961C30.2216 36.6928 30.1698 23.447 38.4356 15.4877C41.4952 12.5506 45.3933 10.6332 49.5917 10.0004C53.7902 9.36748 58.082 10.0502 61.8749 11.9544C63.6061 12.8394 65.5733 13.156 67.4957 12.859C69.418 12.562 71.1971 11.6665 72.5789 10.3004L72.6777 10.2023C72.7085 10.1719 72.7328 10.1356 72.7495 10.0956C72.7662 10.0557 72.7747 10.0129 72.7747 9.96963C72.7747 9.92638 72.7662 9.88354 72.7495 9.84363C72.7328 9.80371 72.7085 9.76745 72.6777 9.73693C67.3418 4.54738 60.1915 1.63243 52.7396 1.60886C45.2877 1.5853 38.1189 4.45497 32.7502 9.61067C21.1854 20.7485 21.2267 39.2697 32.5933 50.6095L71.3499 89.2745L67.2329 93.3818C59.2458 101.35 46.2422 101.547 38.2097 93.6249C35.1658 90.6165 33.1431 86.732 32.4255 82.5178C31.7079 78.3036 32.3316 73.971 34.2088 70.1283C35.1095 68.2927 35.413 66.2224 35.0771 64.2069C34.7411 62.1908 33.7824 60.3298 32.335 58.884C29.6731 61.546 27.563 64.7046 26.1253 68.18C24.6875 71.656 23.9503 75.3797 23.9556 79.14C23.9609 82.8997 24.7088 86.6219 26.1564 90.0931C27.604 93.5649 29.7231 96.7178 32.3925 99.372C43.6247 110.516 61.8581 110.294 73.0595 99.1195L111.878 60.3924L115.077 63.5839C123.064 71.5521 123.262 84.5245 115.321 92.5381C112.305 95.5752 108.411 97.5928 104.187 98.3092C99.9631 99.025 95.6202 98.4026 91.7683 96.5295C89.928 95.6305 87.8517 95.3274 85.8303 95.6634C83.809 95.9989 81.943 96.9563 80.4938 98.4015C83.1621 101.057 86.3282 103.163 89.8119 104.597C93.296 106.031 97.0286 106.767 100.798 106.762C104.566 106.756 108.297 106.01 111.777 104.566C115.257 103.121 118.417 101.007 121.078 98.3441C132.248 87.1385 132.025 68.9481 120.825 57.7737L82.0586 19.0951ZM77.1372 83.4982L47.3201 53.7515L76.2691 24.8714L106.086 54.6181L77.1372 83.4982Z" fill="#405D0E"/>
</svg>
