<svg width="150" height="150" viewBox="0 0 150 150" fill="none" xmlns="http://www.w3.org/2000/svg">
<g clip-path="url(#clip0_132_55)">
<path d="M60.5366 40.942C57.0243 40.9686 54.1704 38.1145 54.1971 34.6022V34.6022C54.2926 22.0577 64.4276 11.6146 76.9727 11.4468C81.7314 11.3885 86.3663 12.8221 90.2262 15.5464C94.0861 18.2707 96.977 22.149 98.4929 26.6363C99.2142 28.7827 100.591 30.64 102.432 31.9491V31.9491C105.479 34.115 108.855 30.8998 108.09 27.2408C107.699 25.3694 107.137 23.5353 106.411 21.7614C104.834 17.9088 102.508 14.4161 99.5669 11.4831C96.6252 8.55057 93.1263 6.2344 89.269 4.66806C85.4117 3.10169 81.2719 2.31554 77.0862 2.3543C59.4934 2.53793 45.2392 17.1385 45.1049 34.731L44.6788 90.6138C44.6576 93.3906 42.4117 95.6365 39.6349 95.6576V95.6576C26.8776 95.7547 16.4895 85.4485 16.8125 72.6903C16.9391 67.9749 18.5258 63.3927 21.3536 59.5762C24.1813 55.7596 28.1107 52.897 32.5994 51.3832C34.6607 50.7047 36.4646 49.3953 37.7537 47.6422C39.0428 45.889 39.751 43.7817 39.7773 41.6213L39.7788 41.4664C39.7794 41.4183 39.7703 41.3707 39.7523 41.3263C39.7343 41.2819 39.7076 41.2417 39.6738 41.2079C39.64 41.1741 39.5998 41.1474 39.5555 41.1294C39.5111 41.1114 39.4635 41.1024 39.4153 41.1029C31.1392 41.2712 23.2042 44.652 17.2892 50.5301C11.3743 56.4082 7.94349 64.3225 7.72279 72.5981C7.27231 90.4497 21.7732 104.885 39.6257 104.749L94.0308 104.335C97.5859 104.308 100.475 107.197 100.448 110.752V110.752C100.352 123.297 90.2168 133.74 77.6721 133.908C72.9135 133.966 68.2785 132.532 64.4187 129.808C60.5589 127.084 57.6678 123.206 56.1515 118.718C55.4303 116.572 54.0532 114.714 52.2129 113.406V113.406C49.1666 111.239 45.7897 114.455 46.5548 118.114C46.9461 119.985 47.5071 121.819 48.2332 123.593C49.8108 127.446 52.1363 130.938 55.078 133.871C58.0192 136.804 61.5186 139.12 65.3757 140.686C69.2332 142.253 73.373 143.039 77.5585 143C95.1514 142.817 109.406 128.217 109.54 110.624L109.966 54.6797C109.987 51.8924 112.241 49.6381 115.029 49.6169V49.6169C127.573 49.5214 137.863 59.4986 137.84 72.0422C137.826 76.8008 136.321 81.4579 133.538 85.36C130.755 89.2617 126.832 92.2119 122.321 93.7965C120.163 94.5506 118.283 95.9567 116.946 97.8186V97.8186C114.765 100.854 117.959 104.22 121.605 103.401C123.47 102.981 125.301 102.395 127.075 101.647C130.952 100.01 134.48 97.6313 137.459 94.6448C140.436 91.6582 142.806 88.1231 144.431 84.2417C146.056 80.3599 146.906 76.2077 146.93 72.0222C147.016 54.4301 132.63 40.3962 115.038 40.5301L60.5366 40.942ZM100.735 72.807C100.64 85.2259 90.5958 95.2701 78.1769 95.3646L76.8129 95.375C64.1236 95.4716 53.8123 85.1603 53.909 72.4709V72.4709C54.0037 60.052 64.048 50.0078 76.4669 49.9133L77.8308 49.9029C90.5201 49.8063 100.831 60.1177 100.735 72.807V72.807Z" fill="#405D0E"/>
</g>
<defs>
<clipPath id="clip0_132_55">
<rect width="150" height="150" fill="white"/>
</clipPath>
</defs>
</svg>
