<svg width="62" height="63" viewBox="0 0 62 63" fill="none" xmlns="http://www.w3.org/2000/svg">
<path d="M33.9563 10.7151L36.3333 8.33809C41.001 3.67032 48.6002 3.55479 53.2949 8.19566C55.0737 9.95809 56.256 12.2335 56.6753 14.7022C57.0946 17.171 56.73 19.7091 55.6327 21.96C55.1064 23.0352 54.9292 24.248 55.1254 25.4289C55.3219 26.6098 55.8822 27.6999 56.7282 28.5469C58.2839 26.9876 59.5169 25.1371 60.3571 23.1011C61.1973 21.0651 61.6282 18.8835 61.6252 16.681C61.6218 14.4784 61.185 12.2981 60.339 10.2645C59.493 8.23087 58.2545 6.38387 56.6945 4.82901C50.13 -1.69859 39.4744 -1.56869 32.9281 4.97725L10.2715 27.6333L8.40887 25.7707C3.66194 21.0238 3.63169 13.2644 8.46236 8.60186C10.2505 6.88131 12.5285 5.75813 14.9822 5.38739C17.4358 5.01664 19.944 5.41661 22.1606 6.53205C23.1724 7.05051 24.3221 7.23597 25.4455 7.06197C26.569 6.88797 27.6087 6.3634 28.4162 5.56316L28.474 5.5057C28.492 5.48785 28.5062 5.46661 28.516 5.4432C28.5257 5.41982 28.5307 5.39472 28.5307 5.36939C28.5307 5.34405 28.5257 5.31895 28.516 5.29557C28.5062 5.27219 28.492 5.25095 28.474 5.23307C25.3556 2.19304 21.1768 0.485461 16.8218 0.471655C12.4669 0.457852 8.2773 2.1389 5.13972 5.1591C-1.61895 11.6837 -1.5948 22.5333 5.04803 29.1762L27.698 51.8261L25.2919 54.2321C20.6242 58.8999 13.0247 59.0154 8.33032 54.3745C6.55146 52.6122 5.36932 50.3367 4.94995 47.868C4.53061 45.3994 4.89506 42.8613 5.99216 40.6102C6.51851 39.535 6.6959 38.3222 6.49959 37.1415C6.30324 35.9605 5.74297 34.8703 4.89704 34.0233C3.34142 35.5827 2.10826 37.4331 1.26801 39.469C0.427762 41.5052 -0.00310534 43.6865 1.68472e-05 45.8893C0.00313904 48.0918 0.440189 50.2722 1.28621 52.3056C2.13223 54.3394 3.37064 56.1864 4.93066 57.7412C11.4949 64.2691 22.1509 64.1395 28.6971 57.5933L51.3831 34.907L53.2527 36.7766C57.9205 41.4443 58.036 49.0435 53.3951 53.7379C51.6328 55.517 49.3573 56.6989 46.8886 57.1186C44.42 57.5379 41.8819 57.1733 39.6308 56.076C38.5553 55.5494 37.3419 55.3718 36.1606 55.5687C34.9793 55.7652 33.8887 56.3261 33.0418 57.1727C34.6012 58.7284 36.4516 59.9617 38.4874 60.8019C40.5236 61.6421 42.705 62.0731 44.9078 62.07C47.1102 62.0666 49.2907 61.6296 51.3241 60.7836C53.3579 59.9375 55.2049 58.6991 56.7597 57.1391C63.2876 50.5748 63.1577 39.9189 56.6117 33.3729L33.9563 10.7151ZM31.0802 48.4423L13.6546 31.0167L30.5728 14.0988L47.9984 31.5244L31.0802 48.4423Z" fill="#405D0E"/>
</svg>
